<?xml version="1.0" encoding="UTF-8"?><svg xmlns="http://www.w3.org/2000/svg" xmlns:xlink="http://www.w3.org/1999/xlink" width="224.87999" zoomAndPan="magnify" viewBox="0 0 224.87999 225" height="225" preserveAspectRatio="xMidYMid meet" version="1.0"><defs><clipPath id="clip-0"><path d="M 27.839844 27.898438 L 197.25 27.898438 L 197.25 197.308594 L 27.839844 197.308594 Z M 27.839844 27.898438 " clip-rule="nonzero"/></clipPath></defs><path fill="rgb(88.238525%, 11.369324%, 28.239441%)" d="M 188.808594 160.980469 C 188.253906 157.910156 187.621094 154.425781 183.648438 150.457031 C 179.675781 146.484375 176.195312 145.851562 173.121094 145.292969 C 170.34375 144.789062 168.148438 144.390625 165.308594 141.550781 C 162.472656 138.714844 162.074219 136.519531 161.570312 133.738281 C 161.011719 130.667969 160.378906 127.1875 156.40625 123.214844 C 152.433594 119.242188 148.953125 118.609375 145.882812 118.050781 C 143.101562 117.546875 140.90625 117.148438 138.070312 114.3125 C 135.230469 111.472656 134.832031 109.277344 134.328125 106.5 C 133.769531 103.429688 133.136719 99.945312 129.167969 95.972656 C 125.195312 92.003906 121.710938 91.371094 118.640625 90.8125 C 115.863281 90.308594 113.667969 89.910156 110.828125 87.070312 C 107.992188 84.234375 107.59375 82.039062 107.089844 79.257812 C 106.53125 76.1875 105.898438 72.707031 101.925781 68.734375 C 97.953125 64.761719 94.472656 64.128906 91.402344 63.570312 C 88.621094 63.066406 86.425781 62.667969 83.589844 59.832031 C 80.75 56.992188 80.351562 54.796875 79.847656 52.019531 C 79.289062 48.945312 78.65625 45.464844 74.6875 41.492188 C 70.714844 37.523438 67.230469 36.890625 64.160156 36.332031 C 61.382812 35.828125 59.1875 35.429688 56.347656 32.59375 L 52.71875 36.222656 C 56.691406 40.195312 60.171875 40.828125 63.246094 41.386719 C 66.023438 41.890625 68.21875 42.289062 71.054688 45.125 C 73.894531 47.960938 74.292969 50.15625 74.796875 52.9375 C 75.355469 56.007812 75.988281 59.488281 79.960938 63.460938 C 83.929688 67.433594 87.414062 68.066406 90.484375 68.625 C 93.261719 69.128906 95.457031 69.527344 98.296875 72.363281 C 101.132812 75.203125 101.53125 77.398438 102.039062 80.175781 C 102.59375 83.25 103.226562 86.730469 107.199219 90.703125 C 111.171875 94.675781 114.652344 95.304688 117.722656 95.863281 C 120.503906 96.367188 122.699219 96.765625 125.535156 99.605469 C 128.375 102.441406 128.773438 104.636719 129.277344 107.417969 C 129.835938 110.488281 130.46875 113.96875 134.441406 117.941406 C 138.410156 121.914062 141.894531 122.546875 144.964844 123.105469 C 147.742188 123.609375 149.9375 124.007812 152.777344 126.84375 C 155.613281 129.683594 156.011719 131.878906 156.519531 134.65625 C 157.074219 137.730469 157.707031 141.210938 161.679688 145.183594 C 165.652344 149.15625 169.132812 149.789062 172.207031 150.34375 C 174.984375 150.851562 177.179688 151.25 180.019531 154.085938 C 182.855469 156.925781 183.253906 159.121094 183.757812 161.898438 C 184.316406 164.972656 184.949219 168.453125 188.921875 172.425781 L 192.550781 168.792969 C 189.714844 165.957031 189.316406 163.761719 188.808594 160.980469 Z M 188.808594 160.980469 " fill-opacity="1" fill-rule="nonzero"/><g clip-path="url(#clip-0)"><path fill="rgb(88.238525%, 11.369324%, 28.239441%)" d="M 37.132812 27.898438 L 27.839844 37.191406 L 27.839844 197.308594 L 187.953125 197.308594 L 197.246094 188.011719 Z M 186.890625 191.109375 L 122.15625 126.378906 L 118.527344 130.007812 L 180.691406 192.171875 L 32.972656 192.171875 L 32.972656 44.453125 L 113.6875 125.167969 L 117.316406 121.535156 L 34.035156 38.257812 L 37.132812 35.160156 L 189.988281 188.015625 Z M 186.890625 191.109375 " fill-opacity="1" fill-rule="nonzero"/></g><path fill="rgb(88.238525%, 11.369324%, 28.239441%)" d="M 45.703125 82.457031 L 49.335938 78.828125 L 146.320312 175.808594 L 142.691406 179.441406 Z M 45.703125 82.457031 " fill-opacity="1" fill-rule="nonzero"/><path fill="rgb(88.238525%, 11.369324%, 28.239441%)" d="M 45.703125 106.660156 L 49.332031 103.03125 L 122.117188 175.8125 L 118.488281 179.441406 Z M 45.703125 106.660156 " fill-opacity="1" fill-rule="nonzero"/><path fill="rgb(88.238525%, 11.369324%, 28.239441%)" d="M 45.703125 130.863281 L 49.332031 127.234375 L 97.910156 175.808594 L 94.28125 179.441406 Z M 45.703125 130.863281 " fill-opacity="1" fill-rule="nonzero"/><path fill="rgb(88.238525%, 11.369324%, 28.239441%)" d="M 45.703125 155.066406 L 49.332031 151.4375 L 73.707031 175.8125 L 70.078125 179.441406 Z M 45.703125 155.066406 " fill-opacity="1" fill-rule="nonzero"/></svg>