<?xml version="1.0" encoding="UTF-8"?><svg xmlns="http://www.w3.org/2000/svg" xmlns:xlink="http://www.w3.org/1999/xlink" width="75" zoomAndPan="magnify" viewBox="0 0 75 74.999997" height="74.999997" preserveAspectRatio="xMidYMid meet" version="1.0"><defs><clipPath id="clip-0"><path d="M 2.738281 2.738281 L 72.488281 2.738281 L 72.488281 72.488281 L 2.738281 72.488281 Z M 2.738281 2.738281 " clip-rule="nonzero"/></clipPath></defs><path fill="rgb(100%, 98.429871%, 92.158508%)" d="M 69.011719 57.53125 C 68.785156 56.265625 68.523438 54.832031 66.886719 53.195312 C 65.253906 51.5625 63.820312 51.300781 62.554688 51.070312 C 61.410156 50.863281 60.507812 50.699219 59.335938 49.53125 C 58.167969 48.363281 58.003906 47.457031 57.796875 46.316406 C 57.566406 45.050781 57.308594 43.617188 55.671875 41.980469 C 54.035156 40.347656 52.601562 40.085938 51.339844 39.855469 C 50.195312 39.648438 49.289062 39.484375 48.121094 38.316406 C 46.953125 37.148438 46.789062 36.242188 46.582031 35.097656 C 46.351562 33.835938 46.09375 32.402344 44.457031 30.765625 C 42.820312 29.128906 41.386719 28.871094 40.121094 28.640625 C 38.980469 28.433594 38.074219 28.269531 36.90625 27.101562 C 35.738281 25.933594 35.574219 25.027344 35.367188 23.882812 C 35.136719 22.621094 34.875 21.1875 33.242188 19.550781 C 31.605469 17.914062 30.171875 17.65625 28.90625 17.425781 C 27.761719 17.21875 26.859375 17.054688 25.691406 15.882812 C 24.523438 14.714844 24.359375 13.8125 24.152344 12.667969 C 23.921875 11.402344 23.660156 9.96875 22.027344 8.335938 C 20.390625 6.699219 18.957031 6.4375 17.691406 6.210938 C 16.546875 6.003906 15.644531 5.839844 14.476562 4.671875 L 12.980469 6.164062 C 14.617188 7.800781 16.050781 8.058594 17.316406 8.289062 C 18.460938 8.496094 19.363281 8.660156 20.53125 9.828125 C 21.699219 11 21.863281 11.902344 22.070312 13.046875 C 22.300781 14.3125 22.5625 15.746094 24.195312 17.378906 C 25.832031 19.015625 27.265625 19.273438 28.53125 19.503906 C 29.675781 19.714844 30.578125 19.878906 31.746094 21.046875 C 32.914062 22.214844 33.078125 23.117188 33.285156 24.261719 C 33.515625 25.527344 33.777344 26.960938 35.414062 28.59375 C 37.046875 30.230469 38.480469 30.492188 39.746094 30.71875 C 40.890625 30.929688 41.792969 31.09375 42.960938 32.261719 C 44.128906 33.429688 44.292969 34.332031 44.503906 35.476562 C 44.730469 36.742188 44.992188 38.175781 46.628906 39.8125 C 48.261719 41.445312 49.695312 41.707031 50.960938 41.9375 C 52.105469 42.144531 53.007812 42.308594 54.175781 43.476562 C 55.347656 44.644531 55.511719 45.546875 55.71875 46.691406 C 55.949219 47.957031 56.207031 49.390625 57.84375 51.027344 C 59.480469 52.660156 60.914062 52.921875 62.175781 53.152344 C 63.320312 53.359375 64.226562 53.523438 65.394531 54.691406 C 66.5625 55.859375 66.726562 56.765625 66.933594 57.910156 C 67.164062 59.171875 67.425781 60.605469 69.058594 62.242188 L 70.554688 60.746094 C 69.386719 59.578125 69.222656 58.675781 69.011719 57.53125 Z M 69.011719 57.53125 " fill-opacity="1" fill-rule="nonzero"/><g clip-path="url(#clip-0)"><path fill="rgb(100%, 98.429871%, 92.158508%)" d="M 6.566406 2.738281 L 2.738281 6.5625 L 2.738281 72.488281 L 68.660156 72.488281 L 72.488281 68.660156 Z M 68.222656 69.9375 L 41.570312 43.285156 L 40.074219 44.777344 L 65.671875 70.375 L 4.851562 70.375 L 4.851562 9.554688 L 38.082031 42.785156 L 39.578125 41.289062 L 5.289062 7.003906 L 6.566406 5.726562 L 69.5 68.660156 Z M 68.222656 69.9375 " fill-opacity="1" fill-rule="nonzero"/></g><path fill="rgb(100%, 98.429871%, 92.158508%)" d="M 10.09375 25.199219 L 11.585938 23.707031 L 51.519531 63.636719 L 50.023438 65.132812 Z M 10.09375 25.199219 " fill-opacity="1" fill-rule="nonzero"/><path fill="rgb(100%, 98.429871%, 92.158508%)" d="M 10.09375 35.164062 L 11.585938 33.671875 L 41.554688 63.636719 L 40.058594 65.132812 Z M 10.09375 35.164062 " fill-opacity="1" fill-rule="nonzero"/><path fill="rgb(100%, 98.429871%, 92.158508%)" d="M 10.09375 45.132812 L 11.585938 43.636719 L 31.585938 63.636719 L 30.09375 65.132812 Z M 10.09375 45.132812 " fill-opacity="1" fill-rule="nonzero"/><path fill="rgb(100%, 98.429871%, 92.158508%)" d="M 10.09375 55.097656 L 11.585938 53.601562 L 21.625 63.636719 L 20.128906 65.132812 Z M 10.09375 55.097656 " fill-opacity="1" fill-rule="nonzero"/></svg>